<svg width="16" height="16" viewBox="0 0 16 16" fill="none" xmlns="http://www.w3.org/2000/svg">
<path d="M7.33334 3.13467C7.33321 3.04181 7.30557 2.95107 7.25392 2.8739C7.20227 2.79674 7.12891 2.7366 7.04311 2.70108C6.95732 2.66557 6.86292 2.65626 6.77184 2.67434C6.68076 2.69242 6.59707 2.73707 6.53134 2.80267L4.27534 5.058C4.18828 5.14558 4.0847 5.21502 3.97061 5.26228C3.85651 5.30955 3.73417 5.3337 3.61068 5.33333H2.00001C1.8232 5.33333 1.65363 5.40357 1.52861 5.5286C1.40358 5.65362 1.33334 5.82319 1.33334 6V10C1.33334 10.1768 1.40358 10.3464 1.52861 10.4714C1.65363 10.5964 1.8232 10.6667 2.00001 10.6667H3.61068C3.73417 10.6663 3.85651 10.6905 3.97061 10.7377C4.0847 10.785 4.18828 10.8544 4.27534 10.942L6.53068 13.198C6.59641 13.2639 6.68021 13.3087 6.77147 13.3269C6.86273 13.3451 6.95733 13.3358 7.04329 13.3002C7.12926 13.2645 7.20271 13.2042 7.25434 13.1268C7.30598 13.0494 7.33347 12.9584 7.33334 12.8653V3.13467Z" stroke="#C4CCD4" stroke-width="1.33333" stroke-linecap="round" stroke-linejoin="round"/>
<path d="M10.6667 6C11.0994 6.57699 11.3333 7.27877 11.3333 8C11.3333 8.72123 11.0994 9.42301 10.6667 10" stroke="#C4CCD4" stroke-width="1.33333" stroke-linecap="round" stroke-linejoin="round"/>
<path d="M12.9093 12.2427C13.4665 11.6855 13.9085 11.0241 14.21 10.2961C14.5115 9.56816 14.6667 8.78794 14.6667 8C14.6667 7.21206 14.5115 6.43184 14.21 5.70388C13.9085 4.97592 13.4665 4.31449 12.9093 3.75733" stroke="#C4CCD4" stroke-width="1.33333" stroke-linecap="round" stroke-linejoin="round"/>
</svg>
