<svg width="28" height="28" viewBox="0 0 28 28" fill="none" xmlns="http://www.w3.org/2000/svg">
<path d="M18.6666 23.3333V4.66667C18.6666 4.04783 18.4208 3.45434 17.9832 3.01675C17.5456 2.57917 16.9522 2.33334 16.3333 2.33334H11.6666C11.0478 2.33334 10.4543 2.57917 10.0167 3.01675C9.57915 3.45434 9.33331 4.04783 9.33331 4.66667V23.3333" stroke="#A651FB" stroke-width="2.33333" stroke-linecap="round" stroke-linejoin="round"/>
<path d="M23.3333 7H4.66665C3.37798 7 2.33331 8.04467 2.33331 9.33333V21C2.33331 22.2887 3.37798 23.3333 4.66665 23.3333H23.3333C24.622 23.3333 25.6666 22.2887 25.6666 21V9.33333C25.6666 8.04467 24.622 7 23.3333 7Z" stroke="#A651FB" stroke-width="2.33333" stroke-linecap="round" stroke-linejoin="round"/>
</svg>
