<svg width="28" height="28" viewBox="0 0 28 28" fill="none" xmlns="http://www.w3.org/2000/svg">
<path d="M4.66665 23.3333H23.3333C23.9522 23.3333 24.5456 23.0875 24.9832 22.6499C25.4208 22.2123 25.6666 21.6188 25.6666 21V9.33333C25.6666 8.71449 25.4208 8.121 24.9832 7.68342C24.5456 7.24583 23.9522 7 23.3333 7H14.0816C13.6973 6.99801 13.3195 6.90112 12.9816 6.71795C12.6437 6.53477 12.3564 6.27098 12.145 5.95L11.1883 4.55C10.9769 4.22902 10.6896 3.96523 10.3517 3.78205C10.0138 3.59888 9.63596 3.50199 9.25165 3.5H4.66665C4.04781 3.5 3.45432 3.74583 3.01673 4.18342C2.57915 4.621 2.33331 5.21449 2.33331 5.83333V21C2.33331 22.2833 3.38331 23.3333 4.66665 23.3333Z" stroke="#A651FB" stroke-width="2.33333" stroke-linecap="round" stroke-linejoin="round"/>
<path d="M9.33331 11.6667V16.3333" stroke="#A651FB" stroke-width="2.33333" stroke-linecap="round" stroke-linejoin="round"/>
<path d="M14 11.6667V14" stroke="#A651FB" stroke-width="2.33333" stroke-linecap="round" stroke-linejoin="round"/>
<path d="M18.6667 11.6667V18.6667" stroke="#A651FB" stroke-width="2.33333" stroke-linecap="round" stroke-linejoin="round"/>
</svg>
