<svg width="28" height="28" viewBox="0 0 28 28" fill="none" xmlns="http://www.w3.org/2000/svg">
<path d="M21 4.66666H6.99999C5.71133 4.66666 4.66666 5.71133 4.66666 7V21C4.66666 22.2887 5.71133 23.3333 6.99999 23.3333H21C22.2887 23.3333 23.3333 22.2887 23.3333 21V7C23.3333 5.71133 22.2887 4.66666 21 4.66666Z" stroke="#A651FB" stroke-width="2.33333" stroke-linecap="round" stroke-linejoin="round"/>
<path d="M16.3333 10.5H11.6667C11.0223 10.5 10.5 11.0223 10.5 11.6667V16.3333C10.5 16.9777 11.0223 17.5 11.6667 17.5H16.3333C16.9777 17.5 17.5 16.9777 17.5 16.3333V11.6667C17.5 11.0223 16.9777 10.5 16.3333 10.5Z" stroke="#A651FB" stroke-width="2.33333" stroke-linecap="round" stroke-linejoin="round"/>
<path d="M17.5 2.33334V4.66667" stroke="#A651FB" stroke-width="2.33333" stroke-linecap="round" stroke-linejoin="round"/>
<path d="M17.5 23.3333V25.6667" stroke="#A651FB" stroke-width="2.33333" stroke-linecap="round" stroke-linejoin="round"/>
<path d="M2.33334 17.5H4.66668" stroke="#A651FB" stroke-width="2.33333" stroke-linecap="round" stroke-linejoin="round"/>
<path d="M2.33334 10.5H4.66668" stroke="#A651FB" stroke-width="2.33333" stroke-linecap="round" stroke-linejoin="round"/>
<path d="M23.3333 17.5H25.6667" stroke="#A651FB" stroke-width="2.33333" stroke-linecap="round" stroke-linejoin="round"/>
<path d="M23.3333 10.5H25.6667" stroke="#A651FB" stroke-width="2.33333" stroke-linecap="round" stroke-linejoin="round"/>
<path d="M10.5 2.33334V4.66667" stroke="#A651FB" stroke-width="2.33333" stroke-linecap="round" stroke-linejoin="round"/>
<path d="M10.5 23.3333V25.6667" stroke="#A651FB" stroke-width="2.33333" stroke-linecap="round" stroke-linejoin="round"/>
</svg>
