<svg width="20" height="20" viewBox="0 0 20 20" fill="none" xmlns="http://www.w3.org/2000/svg">
<path d="M12.8973 10.7417L14.1598 17.8467C14.1739 17.9303 14.1622 18.0163 14.1261 18.0931C14.0901 18.1699 14.0315 18.2339 13.9581 18.2765C13.8847 18.3191 13.8 18.3382 13.7155 18.3314C13.6309 18.3246 13.5504 18.2921 13.4848 18.2383L10.5015 15.9992C10.3574 15.8916 10.1825 15.8334 10.0027 15.8334C9.82294 15.8334 9.64798 15.8916 9.50396 15.9992L6.51563 18.2375C6.45006 18.2912 6.36968 18.3236 6.28521 18.3305C6.20073 18.3373 6.11619 18.3182 6.04285 18.2757C5.9695 18.2333 5.91086 18.1694 5.87473 18.0928C5.83859 18.0161 5.8267 17.9303 5.84063 17.8467L7.10229 10.7417" stroke="#1FD5F9" stroke-width="1.66667" stroke-linecap="round" stroke-linejoin="round"/>
<path d="M10 11.6667C12.7614 11.6667 15 9.42808 15 6.66666C15 3.90523 12.7614 1.66666 10 1.66666C7.23858 1.66666 5 3.90523 5 6.66666C5 9.42808 7.23858 11.6667 10 11.6667Z" stroke="#1FD5F9" stroke-width="1.66667" stroke-linecap="round" stroke-linejoin="round"/>
</svg>
