<svg width="16" height="16" viewBox="0 0 16 16" fill="none" xmlns="http://www.w3.org/2000/svg">
<path d="M9.99994 14.6667V12C10.0927 11.1649 9.85323 10.3268 9.33328 9.66668C11.3333 9.66668 13.3333 8.33334 13.3333 6.00001C13.3866 5.16668 13.1533 4.34668 12.6666 3.66668C12.8533 2.90001 12.8533 2.10001 12.6666 1.33334C12.6666 1.33334 11.9999 1.33334 10.6666 2.33334C8.90661 2.00001 7.09328 2.00001 5.33328 2.33334C3.99994 1.33334 3.33328 1.33334 3.33328 1.33334C3.13328 2.10001 3.13328 2.90001 3.33328 3.66668C2.84786 4.34393 2.61226 5.16853 2.66661 6.00001C2.66661 8.33334 4.66661 9.66668 6.66661 9.66668C6.40661 9.99334 6.21328 10.3667 6.09994 10.7667C5.98661 11.1667 5.95328 11.5867 5.99994 12V14.6667" stroke="#A651FB" stroke-width="1.66667" stroke-linecap="round" stroke-linejoin="round"/>
<path d="M5.99992 12C2.99325 13.3333 2.66659 10.6667 1.33325 10.6667" stroke="#A651FB" stroke-width="1.66667" stroke-linecap="round" stroke-linejoin="round"/>
</svg>
