<svg width="16" height="16" viewBox="0 0 16 16" fill="none" xmlns="http://www.w3.org/2000/svg">
<path d="M10.0002 14.6666V12C10.0929 11.1648 9.85347 10.3267 9.33352 9.66665C11.3335 9.66665 13.3335 8.33331 13.3335 5.99998C13.3869 5.16665 13.1535 4.34665 12.6669 3.66665C12.8535 2.89998 12.8535 2.09998 12.6669 1.33331C12.6669 1.33331 12.0002 1.33331 10.6669 2.33331C8.90685 1.99998 7.09352 1.99998 5.33352 2.33331C4.00019 1.33331 3.33352 1.33331 3.33352 1.33331C3.13352 2.09998 3.13352 2.89998 3.33352 3.66665C2.8481 4.3439 2.6125 5.1685 2.66685 5.99998C2.66685 8.33331 4.66685 9.66665 6.66685 9.66665C6.40685 9.99331 6.21352 10.3666 6.10019 10.7666C5.98685 11.1666 5.95352 11.5866 6.00019 12V14.6666" stroke="#F8FAFC" stroke-width="1.33333" stroke-linecap="round" stroke-linejoin="round"/>
<path d="M5.99967 12C2.99301 13.3334 2.66634 10.6667 1.33301 10.6667" stroke="#F8FAFC" stroke-width="1.33333" stroke-linecap="round" stroke-linejoin="round"/>
</svg>
