<svg width="16" height="16" viewBox="0 0 16 16" fill="none" xmlns="http://www.w3.org/2000/svg">
<path d="M10.6667 5.33334C11.7276 5.33334 12.745 5.75477 13.4952 6.50492C14.2453 7.25506 14.6667 8.27248 14.6667 9.33334V14H12.0001V9.33334C12.0001 8.97972 11.8596 8.64058 11.6096 8.39053C11.3595 8.14049 11.0204 8.00001 10.6667 8.00001C10.3131 8.00001 9.97399 8.14049 9.72394 8.39053C9.47389 8.64058 9.33341 8.97972 9.33341 9.33334V14H6.66675V9.33334C6.66675 8.27248 7.08818 7.25506 7.83832 6.50492C8.58847 5.75477 9.60588 5.33334 10.6667 5.33334Z" stroke="#A651FB" stroke-width="1.66667" stroke-linecap="round" stroke-linejoin="round"/>
<path d="M3.99992 6H1.33325V14H3.99992V6Z" stroke="#A651FB" stroke-width="1.66667" stroke-linecap="round" stroke-linejoin="round"/>
<path d="M2.66659 4.00001C3.40296 4.00001 3.99992 3.40306 3.99992 2.66668C3.99992 1.9303 3.40296 1.33334 2.66659 1.33334C1.93021 1.33334 1.33325 1.9303 1.33325 2.66668C1.33325 3.40306 1.93021 4.00001 2.66659 4.00001Z" stroke="#A651FB" stroke-width="1.66667" stroke-linecap="round" stroke-linejoin="round"/>
</svg>
